<svg id="md-log-out" xmlns="http://www.w3.org/2000/svg" width="13.996" height="13.996" viewBox="0 0 13.996 13.996">
  <path id="Path_1645" data-name="Path 1645" d="M201.151,163.95h-6.382l1.467,1.5-1.006,1.006L192,163.23l3.23-3.23,1.043,1.006-1.5,1.5h6.382Z" transform="translate(-192 -156.232)"/>
  <path id="Path_1646" data-name="Path 1646" d="M54.5,60.559a5.561,5.561,0,1,0-3.92-9.5l-1.019-1.019a7.436,7.436,0,0,1,.932-.781,7,7,0,1,1-.929,10.7l1.016-1.016A5.507,5.507,0,0,0,54.5,60.559Zm-6.47-5.533L48.057,55l-.029-.029L48,55Z" transform="translate(-47.49 -48)"/>
</svg>
