<svg xmlns="http://www.w3.org/2000/svg" xmlns:xlink="http://www.w3.org/1999/xlink" width="759" height="711" viewBox="0 0 759 711"><defs><style>.a,.g{fill:none;}.a{stroke:#fff;stroke-width:3px;}.b{clip-path:url(#a);}.c{fill:#262626;stroke:#ebebf2;stroke-width:2px;}.d{fill:#256bb0;fill-rule:evenodd;}.e{opacity:0.5;mix-blend-mode:overlay;isolation:isolate;fill:url(#b);}.f{stroke:none;}</style><clipPath id="a"><rect class="a" width="759" height="711" transform="translate(579 222.961)"/></clipPath><pattern id="b" preserveAspectRatio="none" width="100%" height="100%" viewBox="0 0 2000 2000"><image width="2000" height="2000" xlink:href="export-image.jpg"/></pattern></defs><g class="b" transform="translate(-579 -222.961)"><g class="c" transform="translate(581 221)"><rect class="f" width="759" height="714"/><rect class="g" x="1" y="1" width="757" height="712"/></g><path class="d" d="M412.7,269.272C402.272,327.7,363.617,378.633,310.938,410.215c-54.927,32.93-126.279,57.964-184.526,30.691-54.959-25.734-51.1-98.673-75.166-152.287-19.238-42.856-59.6-80.247-49.712-125.892,10.234-47.263,57.1-75.442,99.146-102.4,46.848-30.035,96.159-70.34,151.151-58.07,55.793,12.45,82.613,69.271,111.126,116.594C391.515,166.255,422.322,215.4,412.7,269.272Z" transform="translate(1585.885 383.871) rotate(169)"/><path class="d" d="M353.487,245.68c-8.934,53.308-42.043,99.78-87.163,128.595-47.046,30.045-108.16,52.885-158.05,28C61.2,378.8,64.508,312.249,43.893,263.332,27.415,224.231-7.151,190.116,1.314,148.47c8.766-43.122,48.907-68.832,84.92-93.426C126.36,27.641,168.6-9.134,215.7,2.062c47.788,11.359,70.76,63.2,95.181,106.379C335.34,151.689,361.726,196.527,353.487,245.68Z" transform="translate(394.299 1206.342) rotate(-105)"/><rect class="e" width="1921" height="1080"/><g class="a" transform="translate(579 222.961)"><rect class="f" width="759" height="711"/><rect class="g" x="1.5" y="1.5" width="756" height="708"/></g></g></svg>